<?xml version="1.0" encoding="UTF-8"?><!-- SVG sourced from https://github.com/Templarian/MaterialDesign and parameterized by Klas Karlsson for QGIS --><!DOCTYPE svg PUBLIC "-//W3C//DTD SVG 1.1//EN" "http://www.w3.org/Graphics/SVG/1.1/DTD/svg11.dtd"><svg xmlns="http://www.w3.org/2000/svg" xmlns:xlink="http://www.w3.org/1999/xlink" version="1.1" id="mdi-pause-circle-outline" width="24" height="24" viewBox="0 0 24 24"><path fill="param(fill) #000" opacity="param(fill-opacity)" stroke="param(outline)" stroke-width="param(outline-width) 0" stroke-opacity="param(outline-opacity)" d="M13,16V8H15V16H13M9,16V8H11V16H9M12,2A10,10 0 0,1 22,12A10,10 0 0,1 12,22A10,10 0 0,1 2,12A10,10 0 0,1 12,2M12,4A8,8 0 0,0 4,12A8,8 0 0,0 12,20A8,8 0 0,0 20,12A8,8 0 0,0 12,4Z" /></svg>