<?xml version="1.0" encoding="UTF-8" standalone="no"?>
<svg
   height="24"
   width="24"
   version="1.1"
   id="svg18"
   sodipodi:docname="zoom_pan.svg"
   inkscape:version="1.2.2 (b0a8486541, 2022-12-01)"
   xmlns:inkscape="http://www.inkscape.org/namespaces/inkscape"
   xmlns:sodipodi="http://sodipodi.sourceforge.net/DTD/sodipodi-0.dtd"
   xmlns="http://www.w3.org/2000/svg"
   xmlns:svg="http://www.w3.org/2000/svg">
  <defs
     id="defs22" />
  <sodipodi:namedview
     id="namedview20"
     pagecolor="#ffffff"
     bordercolor="#000000"
     borderopacity="0.25"
     inkscape:showpageshadow="2"
     inkscape:pageopacity="0.0"
     inkscape:pagecheckerboard="0"
     inkscape:deskcolor="#d1d1d1"
     showgrid="false"
     inkscape:zoom="34.875"
     inkscape:cx="12.014337"
     inkscape:cy="12"
     inkscape:window-width="1467"
     inkscape:window-height="1039"
     inkscape:window-x="2104"
     inkscape:window-y="0"
     inkscape:window-maximized="0"
     inkscape:current-layer="svg18" />
  <g
     id="g443">
    <g
       stroke="#505050"
       id="g10"
       transform="translate(0,-8)">
      <path
         d="M 17.96122,7 A 5.9612203,6.0742435 0 0 1 12,13.074244 5.9612203,6.0742435 0 0 1 6.0387797,7 5.9612203,6.0742435 0 0 1 12,0.92575645 5.9612203,6.0742435 0 0 1 17.96122,7 Z"
         style="opacity:0.8;fill:#e6e6e6;stroke-width:0.752183;stroke-linecap:round;stroke-linejoin:round;stroke-dashoffset:7"
         transform="matrix(1.4003553,0,0,1.3742014,-1.673829,7.249508)"
         id="path4" />
      <path
         d="m 7.8260866,22.087644 c 0,2.086807 2.0869568,2.086807 2.0869568,2.086807 0,0 -7.3043482,7.303828 -7.3043482,7.303828 L 0.52173861,29.39147 Z"
         fill="#ffcc30"
         fill-rule="evenodd"
         stroke-linejoin="round"
         stroke-width="1.04344"
         id="path6" />
      <path
         d="m 6.2608692,23.652749 2.0869565,-2.086807 2.0869553,2.086807 -2.0869553,2.086809 z"
         fill-rule="evenodd"
         stroke-linejoin="round"
         stroke-width="1.04344"
         id="path8" />
    </g>
    <path
       d="m 10.434781,4.175305 c 2.086957,-3.1302127 4.635391,-3.545545 6.260871,-2.08681 1.62548,1.458739 -2.086957,1.043405 -4.173914,3.130215 -2.086957,2.086806 0,6.260424 -2.086957,6.260424 -2.0869553,0 -2.0869553,-4.173618 0,-7.303829 z"
       fill="#fcffff"
       fill-rule="evenodd"
       opacity="0.7"
       id="path12" />
    <path
       d="M 2.0869561,20.86977 6.2608692,16.696152"
       opacity="0.5"
       stroke="#fcffff"
       stroke-linecap="round"
       stroke-linejoin="round"
       stroke-width="1.04344"
       id="path14" />
  </g>
</svg>
