<?xml version="1.0" encoding="UTF-8" standalone="no"?>
<svg
   height="24"
   width="24"
   version="1.1"
   id="svg16"
   sodipodi:docname="NewDataTable.svg"
   inkscape:version="1.1.2 (0a00cf5339, 2022-02-04)"
   xmlns:inkscape="http://www.inkscape.org/namespaces/inkscape"
   xmlns:sodipodi="http://sodipodi.sourceforge.net/DTD/sodipodi-0.dtd"
   xmlns="http://www.w3.org/2000/svg"
   xmlns:svg="http://www.w3.org/2000/svg">
  <defs
     id="defs20" />
  <sodipodi:namedview
     id="namedview18"
     pagecolor="#ffffff"
     bordercolor="#666666"
     borderopacity="1.0"
     inkscape:pageshadow="2"
     inkscape:pageopacity="0.0"
     inkscape:pagecheckerboard="0"
     showgrid="false"
     inkscape:snap-global="false"
     inkscape:zoom="17.291667"
     inkscape:cx="6.506024"
     inkscape:cy="5.4939758"
     inkscape:window-width="1920"
     inkscape:window-height="1048"
     inkscape:window-x="0"
     inkscape:window-y="0"
     inkscape:window-maximized="1"
     inkscape:current-layer="svg16" />
  <g
     stroke="#6e97c4"
     transform="matrix(0.81453574,0,0,0.81453574,-1.030667,-7.4774132)"
     id="g28"
     style="stroke-width:1.22769">
    <path
       d="m 2.5,15.5 h 19 v 14 h -19 z"
       fill="#e6e6e6"
       id="path2"
       style="stroke-width:1.50723" />
    <path
       d="m 2.5,10.5 h 19 v 5 h -19 z"
       fill="#bad9ec"
       id="path4-3"
       style="stroke-width:1.50723" />
    <g
       fill="none"
       id="g26"
       style="stroke-width:1.50723">
      <path
         d="M 5,13 H 9"
         stroke-width="2.45539"
         id="path6-6" />
      <path
         d="m 11,13 h 7.999999"
         stroke-width="2.45539"
         id="path8" />
      <path
         d="M 5,17.5 H 9"
         id="path10"
         style="stroke-width:1.22769" />
      <path
         d="m 11,17.5 h 7.999999"
         id="path12"
         style="stroke-width:1.22769" />
      <path
         d="M 5,20.5 H 9"
         id="path14"
         style="stroke-width:1.22769" />
      <path
         d="m 11,20.5 h 7.999999"
         id="path16"
         style="stroke-width:1.22769" />
      <path
         d="M 5,23.5 H 9"
         id="path18"
         style="stroke-width:1.22769" />
      <path
         d="m 11,23.5 h 7.999999"
         id="path20"
         style="stroke-width:1.22769" />
      <path
         d="M 5,26.5 H 9"
         id="path22"
         style="stroke-width:1.22769" />
      <path
         d="m 11,26.5 h 7.999999"
         id="path24"
         style="stroke-width:1.22769" />
    </g>
  </g>
  <g
     transform="matrix(1.1403581,0,0,1.1403581,-12.491859,-12.491859)"
     id="g8"
     style="stroke-width:0.60709">
    <rect
       fill="#c4a000"
       height="13"
       rx="2.615"
       width="13"
       x="19"
       y="19"
       id="rect2"
       style="stroke-width:0.402997" />
    <path
       d="m 20.3,25.5 h 10.4 v -2.6 c 0,-2.6 -0.65,-2.6 -5.2,-2.6 -4.55,0 -5.2,0 -5.2,2.6 z"
       fill="#fcffff"
       fill-rule="evenodd"
       opacity="0.3"
       id="path4"
       style="stroke-width:0.402997" />
    <path
       d="m -6.457,-5.813 v 0.76 c 0,1.04 -0.16,1.76 -0.64,2.68 -0.72,1.56 -0.8,1.76 -0.8,2.36 0,1.16 0.88,2.12 1.92,2.12 1.08,0 1.92,-0.96 1.92,-2.16 0,-0.4 -0.12,-0.92 -0.4,-1.44 -0.92,-1.96 -1,-2.28 -1,-3.56 v -0.76 l 0.64,0.4 c 0.84,0.48 1.48,1.04 2.04,1.84 1.32,1.8 1.76,2.16 2.84,2.16 1,0 1.8,-0.76 1.8,-1.76 0,-1.24 -1.04,-2.16 -2.6,-2.28 -1.96,-0.12 -2.32,-0.2 -3.56,-0.88 l -0.64,-0.36 0.64,-0.36 c 0.92,-0.52 1.6,-0.76 2.64,-0.8 1.6,-0.16 1.72,-0.16 2.2,-0.36 0.8,-0.4 1.32,-1.12 1.32,-1.96 0,-1.04 -0.84,-1.84 -1.88,-1.84 -0.88,0 -1.6,0.44 -2.24,1.4 -1.12,1.68 -1.36,1.92 -2.56,2.64 l -0.64,0.4 v -0.76 c 0,-1 0.16,-1.76 0.64,-2.68 0.76,-1.6 0.8,-1.76 0.8,-2.32 0,-1.2 -0.88,-2.16 -1.96,-2.16 -1.04,0 -1.92,0.96 -1.92,2.12 0,0.44 0.12,0.96 0.4,1.48 0.96,2 1.04,2.28 1.04,3.56 v 0.76 l -0.64,-0.4 c -0.92,-0.52 -1.44,-1.04 -2.04,-1.88 -0.8,-1.2 -0.8,-1.2 -1.12,-1.52 -0.44,-0.4 -1.08,-0.64 -1.6,-0.64 -1.08,0 -1.92,0.84 -1.92,1.84 0,1.24 1,2.12 2.56,2.24 2.04,0.12 2.36,0.2 3.6,0.88 l 0.64,0.36 -0.64,0.4 c -0.84,0.48 -1.64,0.72 -2.64,0.8 -1.56,0.08 -1.68,0.12 -2.2,0.32 -0.8,0.36 -1.32,1.12 -1.32,1.96 0,1 0.84,1.84 1.88,1.84 0.88,0 1.64,-0.48 2.24,-1.4 1.08,-1.6 1.4,-1.96 2.56,-2.64 z"
       fill="#ffffff"
       stroke="#ffffff"
       stroke-width="0.301724"
       transform="matrix(0.60272,0,0,0.60366,29.09,29.54)"
       id="path6" />
  </g>
</svg>
